<svg width="921" height="91" viewBox="0 0 921 91" fill="none" xmlns="http://www.w3.org/2000/svg">
<path d="M74.84 27.2H54.56C53.52 23.92 51.48 21.4 48.44 19.64C45.48 17.88 41.8 17 37.4 17C33.24 17 29.88 17.76 27.32 19.28C24.84 20.72 23.6 22.76 23.6 25.4C23.6 27.56 24.48 29.4 26.24 30.92C28.08 32.44 30.56 33.52 33.68 34.16L45.56 36.56C49.16 37.28 52.12 37.96 54.44 38.6C56.76 39.16 59.52 40.12 62.72 41.48C65.92 42.84 68.44 44.36 70.28 46.04C72.2 47.64 73.84 49.84 75.2 52.64C76.64 55.36 77.36 58.48 77.36 62C77.36 70.64 73.68 77.56 66.32 82.76C59.04 87.96 50.56 90.56 40.88 90.56C29.68 90.56 20.6 87.96 13.64 82.76C6.68 77.48 2.4 70.12 0.8 60.68H21.2C23.44 69.56 30.16 74 41.36 74C45.44 74 48.92 73.24 51.8 71.72C54.76 70.2 56.24 67.8 56.24 64.52C56.24 61.88 54.84 59.76 52.04 58.16C49.32 56.56 45.32 55.2 40.04 54.08L29.48 51.92C11.48 48.24 2.48 39.8 2.48 26.6C2.48 21 4.32 16.16 8 12.08C11.76 8 16.28 5.08 21.56 3.31999C26.92 1.47999 32.6 0.559994 38.6 0.559994C44.52 0.559994 49.96 1.43999 54.92 3.2C59.88 4.88 64.2 7.8 67.88 11.96C71.64 16.04 73.96 21.12 74.84 27.2ZM77.3844 89L110.144 2H132.704L165.584 89H143.264L137.984 73.52H104.384L99.2244 89H77.3844ZM121.304 23.72L110.024 56.84H132.464L121.304 23.72ZM208.696 0.559994C218.616 0.559994 227.056 3.04 234.016 8C241.056 12.88 245.616 19.96 247.696 29.24H227.536C226.496 25.88 224.336 23.08 221.056 20.84C217.856 18.6 213.656 17.48 208.456 17.48C201.896 17.48 196.496 19.88 192.256 24.68C188.096 29.48 186.016 36.32 186.016 45.2C186.016 54.24 188.056 61.24 192.136 66.2C196.216 71.16 201.776 73.64 208.816 73.64C214.256 73.64 218.816 72.48 222.496 70.16C226.256 67.84 228.136 64.12 228.136 59V57.32H207.136V40.52H248.656V89H232.936L232.336 79.4C226.896 86.84 218.016 90.56 205.696 90.56C192.896 90.56 182.776 86.48 175.336 78.32C167.976 70.16 164.296 59.12 164.296 45.2C164.296 31.6 168.376 20.76 176.536 12.68C184.696 4.59999 195.416 0.559994 208.696 0.559994ZM255.744 89L288.504 2H311.064L343.944 89H321.624L316.344 73.52H282.744L277.584 89H255.744ZM299.664 23.72L288.384 56.84H310.824L299.664 23.72ZM404.497 89L385.657 56.24H371.737V89H351.217V2H384.697C389.497 2 393.777 2.24 397.537 2.72C401.297 3.19999 404.857 4.03999 408.217 5.24C411.657 6.44 414.497 8.04 416.737 10.04C419.057 12.04 420.857 14.64 422.137 17.84C423.497 20.96 424.177 24.64 424.177 28.88C424.177 40.48 418.497 48.48 407.137 52.88L428.617 89H404.497ZM385.297 19.28H371.737V38.96H385.297C390.817 38.96 395.057 38.28 398.017 36.92C400.977 35.56 402.457 32.96 402.457 29.12C402.457 25.36 400.937 22.8 397.897 21.44C394.937 20 390.737 19.28 385.297 19.28ZM504.283 55.76V2H524.803V55.76C524.803 66.72 521.883 75.28 516.043 81.44C510.203 87.52 501.803 90.56 490.842 90.56C479.963 90.56 471.643 87.4 465.883 81.08C460.203 74.76 457.203 66.32 456.883 55.76H477.403C477.563 62.56 478.723 67.36 480.883 70.16C483.043 72.88 486.363 74.24 490.842 74.24C495.323 74.24 498.683 72.84 500.923 70.04C503.163 67.24 504.283 62.48 504.283 55.76ZM562.694 24.92C558.294 29.8 556.094 36.68 556.094 45.56C556.094 54.44 558.294 61.36 562.694 66.32C567.174 71.2 572.774 73.64 579.494 73.64C586.214 73.64 591.774 71.2 596.174 66.32C600.654 61.36 602.894 54.44 602.894 45.56C602.894 36.68 600.654 29.8 596.174 24.92C591.774 19.96 586.214 17.48 579.494 17.48C572.774 17.48 567.174 19.96 562.694 24.92ZM612.014 12.92C620.414 21.16 624.614 32.04 624.614 45.56C624.614 59.08 620.414 69.96 612.014 78.2C603.694 86.44 592.854 90.56 579.494 90.56C566.054 90.56 555.174 86.44 546.854 78.2C538.534 69.96 534.374 59.08 534.374 45.56C534.374 32.04 538.534 21.16 546.854 12.92C555.174 4.68 566.054 0.559994 579.494 0.559994C592.854 0.559994 603.694 4.68 612.014 12.92ZM691.442 2H711.962V89H691.442V53.36H655.682V89H635.162V2H655.682V35.24H691.442V2ZM718.166 89L750.926 2H773.486L806.366 89H784.046L778.766 73.52H745.166L740.006 89H718.166ZM762.086 23.72L750.806 56.84H773.246L762.086 23.72ZM866.919 89L848.079 56.24H834.159V89H813.639V2H847.119C851.919 2 856.199 2.24 859.959 2.72C863.719 3.19999 867.279 4.03999 870.639 5.24C874.079 6.44 876.919 8.04 879.159 10.04C881.479 12.04 883.279 14.64 884.559 17.84C885.919 20.96 886.599 24.64 886.599 28.88C886.599 40.48 880.919 48.48 869.559 52.88L891.039 89H866.919ZM847.719 19.28H834.159V38.96H847.719C853.239 38.96 857.479 38.28 860.439 36.92C863.399 35.56 864.879 32.96 864.879 29.12C864.879 25.36 863.359 22.8 860.319 21.44C857.359 20 853.159 19.28 847.719 19.28ZM920.643 2V89H900.123V2H920.643Z" fill="white"/>
</svg>
